<svg width="300" height="300" viewBox="0 0 300 300" fill="none" xmlns="http://www.w3.org/2000/svg">
<circle cx="150" cy="150" r="150" fill="#D9D9D9"/>
<path d="M86.0341 167V132.091H93.4148V160.915H108.381V167H86.0341ZM143.989 149.545C143.989 153.352 143.267 156.591 141.824 159.261C140.392 161.932 138.438 163.972 135.96 165.381C133.494 166.778 130.722 167.477 127.642 167.477C124.54 167.477 121.756 166.773 119.29 165.364C116.824 163.955 114.875 161.915 113.443 159.244C112.011 156.574 111.295 153.341 111.295 149.545C111.295 145.739 112.011 142.5 113.443 139.83C114.875 137.159 116.824 135.125 119.29 133.727C121.756 132.318 124.54 131.614 127.642 131.614C130.722 131.614 133.494 132.318 135.96 133.727C138.438 135.125 140.392 137.159 141.824 139.83C143.267 142.5 143.989 145.739 143.989 149.545ZM136.506 149.545C136.506 147.08 136.136 145 135.398 143.307C134.67 141.614 133.642 140.33 132.312 139.455C130.983 138.58 129.426 138.142 127.642 138.142C125.858 138.142 124.301 138.58 122.972 139.455C121.642 140.33 120.608 141.614 119.869 143.307C119.142 145 118.778 147.08 118.778 149.545C118.778 152.011 119.142 154.091 119.869 155.784C120.608 157.477 121.642 158.761 122.972 159.636C124.301 160.511 125.858 160.949 127.642 160.949C129.426 160.949 130.983 160.511 132.312 159.636C133.642 158.761 134.67 157.477 135.398 155.784C136.136 154.091 136.506 152.011 136.506 149.545ZM172.604 143.375C172.365 142.545 172.03 141.812 171.598 141.176C171.166 140.528 170.638 139.983 170.013 139.54C169.399 139.085 168.695 138.739 167.899 138.5C167.115 138.261 166.246 138.142 165.291 138.142C163.507 138.142 161.939 138.585 160.587 139.472C159.246 140.358 158.2 141.648 157.45 143.341C156.7 145.023 156.325 147.08 156.325 149.511C156.325 151.943 156.695 154.011 157.433 155.716C158.172 157.42 159.217 158.722 160.57 159.619C161.922 160.506 163.518 160.949 165.359 160.949C167.03 160.949 168.456 160.653 169.638 160.062C170.831 159.46 171.74 158.614 172.365 157.523C173.001 156.432 173.32 155.142 173.32 153.653L174.82 153.875H165.82V148.318H180.428V152.716C180.428 155.784 179.78 158.42 178.484 160.625C177.189 162.818 175.405 164.511 173.132 165.705C170.859 166.886 168.257 167.477 165.325 167.477C162.053 167.477 159.178 166.756 156.7 165.312C154.223 163.858 152.291 161.795 150.905 159.125C149.53 156.443 148.842 153.261 148.842 149.58C148.842 146.75 149.251 144.227 150.07 142.011C150.899 139.784 152.058 137.898 153.547 136.352C155.036 134.807 156.768 133.631 158.746 132.824C160.723 132.017 162.865 131.614 165.172 131.614C167.149 131.614 168.99 131.903 170.695 132.483C172.399 133.051 173.911 133.858 175.229 134.903C176.558 135.949 177.643 137.193 178.484 138.636C179.325 140.068 179.865 141.648 180.104 143.375H172.604ZM218.051 149.545C218.051 153.352 217.33 156.591 215.886 159.261C214.455 161.932 212.5 163.972 210.023 165.381C207.557 166.778 204.784 167.477 201.705 167.477C198.602 167.477 195.818 166.773 193.352 165.364C190.886 163.955 188.938 161.915 187.506 159.244C186.074 156.574 185.358 153.341 185.358 149.545C185.358 145.739 186.074 142.5 187.506 139.83C188.938 137.159 190.886 135.125 193.352 133.727C195.818 132.318 198.602 131.614 201.705 131.614C204.784 131.614 207.557 132.318 210.023 133.727C212.5 135.125 214.455 137.159 215.886 139.83C217.33 142.5 218.051 145.739 218.051 149.545ZM210.568 149.545C210.568 147.08 210.199 145 209.46 143.307C208.733 141.614 207.705 140.33 206.375 139.455C205.045 138.58 203.489 138.142 201.705 138.142C199.92 138.142 198.364 138.58 197.034 139.455C195.705 140.33 194.67 141.614 193.932 143.307C193.205 145 192.841 147.08 192.841 149.545C192.841 152.011 193.205 154.091 193.932 155.784C194.67 157.477 195.705 158.761 197.034 159.636C198.364 160.511 199.92 160.949 201.705 160.949C203.489 160.949 205.045 160.511 206.375 159.636C207.705 158.761 208.733 157.477 209.46 155.784C210.199 154.091 210.568 152.011 210.568 149.545Z" fill="black"/>
</svg>
